<svg xmlns="http://www.w3.org/2000/svg" viewBox="0 0 32 32" width="32" height="32" fill="none">
  <path d="M16 3C9.38 3 4 8.38 4 15c0 2.3.69 4.45 1.88 6.24L4 29l7.95-1.86C13.68 28.33 14.8 29 16 29c6.62 0 12-5.38 12-12S22.62 3 16 3z" stroke="#22c55e" stroke-width="2" fill="#22c55e" opacity="0.15"/>
  <path d="M16 6.5c-4.69 0-8.5 3.81-8.5 8.5 0 2.05.74 3.93 1.98 5.39l-.98 3.69 3.78-1c1.41.93 3.1 1.47 4.93 1.47 4.69 0 8.5-3.81 8.5-8.5S20.69 6.5 16 6.5z" fill="#fff"/>
  <path d="M13.7 12.2c-.2-.44-.4-.45-.6-.46h-.5c-.17 0-.45.06-.68.33-.23.27-.89.87-.89 2.12 0 1.25.91 2.46 1.04 2.63.14.17 1.76 2.68 4.33 3.66 2.14.84 2.58.68 3.05.64.47-.04 1.5-.61 1.71-1.2.21-.6.21-1.11.15-1.21-.06-.1-.23-.16-.47-.28-.24-.12-1.5-.74-1.73-.83-.23-.09-.4-.13-.57.14-.17.27-.66.83-.81 1.01-.15.18-.3.2-.54.07-.24-.13-1.01-.37-1.93-1.18-.71-.62-1.18-1.38-1.32-1.61-.14-.23-.02-.35.11-.47.11-.11.24-.28.36-.42.12-.14.16-.24.24-.41.08-.17.04-.32-.02-.45-.06-.12-.52-1.28-.72-1.75z" fill="#22c55e"/>
</svg>

